<?xml version="1.0" standalone="no"?>
<!DOCTYPE svg PUBLIC "-//W3C//DTD SVG 20010904//EN"
 "http://www.w3.org/TR/2001/REC-SVG-20010904/DTD/svg10.dtd">
<svg version="1.0" xmlns="http://www.w3.org/2000/svg"
 width="550.000000pt" height="550.000000pt" viewBox="0 0 550.000000 550.000000"
 preserveAspectRatio="xMidYMid meet">
<metadata>
Created by potrace 1.11, written by Peter Selinger 2001-2013
</metadata>
<g transform="translate(0.000000,550.000000) scale(0.100000,-0.100000)"
fill="#000000" stroke="none">
<path d="M0 2750 l0 -2750 2750 0 2750 0 0 2750 0 2750 -2750 0 -2750 0 0
-2750z m4863 1308 c-72 -92 -469 -592 -1048 -1318 -204 -256 -419 -527 -479
-602 -60 -76 -113 -138 -117 -138 -4 0 -40 42 -82 93 -41 50 -127 157 -191
236 -67 82 -113 148 -109 155 7 11 251 320 540 682 92 116 292 367 443 558
l275 346 389 0 c309 0 386 -3 379 -12z m-3071 -483 c76 -93 138 -172 138 -175
0 -9 -382 -480 -389 -480 -8 0 -661 814 -661 824 0 3 174 5 387 4 l388 -3 137
-170z m1483 4 c75 -93 135 -176 133 -183 -4 -17 -370 -475 -380 -475 -9 -1
-646 793 -655 814 -4 13 47 15 380 15 l385 0 137 -171z m-905 -41 c215 -264
287 -354 293 -364 4 -7 -63 -99 -156 -217 -161 -203 -727 -915 -973 -1225
l-129 -162 -388 0 c-214 0 -386 3 -383 8 2 4 123 156 268 338 1033 1299 1373
1724 1379 1724 3 0 44 -46 89 -102z m433 -1227 c180 -225 327 -411 327 -415 0
-3 -174 -6 -387 -6 l-388 1 -135 171 c-74 94 -134 175 -132 180 4 13 375 477
383 477 3 1 152 -183 332 -408z m1477 13 c173 -217 321 -403 329 -414 13 -20
11 -20 -376 -20 l-389 0 -133 167 c-74 91 -134 171 -135 178 -1 11 374 485
384 484 3 0 147 -178 320 -395z"/>
</g>
</svg>
